<svg width="1494" height="883" viewBox="580 40 914 525" fill="none" xmlns="http://www.w3.org/2000/svg" role="img" aria-label="SMJ Gallery">
<ellipse cx="1231.28" cy="220.682" rx="51.9714" ry="26.6606" transform="rotate(-21.4545 1231.28 220.682)" fill="#262626" fill-opacity="0.36"/>
<path opacity="0.08" d="M1055.41 460.702C1202.71 381.282 1318.57 302.813 1381.91 239.575C1445.24 176.337 1451.84 132.532 1400.51 116.13C1349.18 99.7286 1243.33 111.82 1102.21 150.205C961.092 188.59 794.092 250.717 631.595 325.283L642.51 336.262C789.602 268.765 940.77 212.528 1068.51 177.782C1196.25 143.036 1292.07 132.091 1338.53 146.937C1385 161.784 1379.02 201.437 1321.69 258.68C1264.36 315.922 1159.48 386.952 1026.15 458.843L1055.41 460.702Z" fill="url(#paint0)"/>
<path d="M362.2 434.825L830.569 542.198L1145.63 421.452L890.361 376.363L362.2 434.825Z" fill="black" stroke="black"/>
<g>
<path d="M1075.17 140.646L770.902 75.686L1231.28 60.1974L1075.17 140.646Z" fill="url(#paint1)"/>
<path d="M770.896 77.7208C819.532 262.243 847.352 366.982 864.088 549.261L863.103 549.033L863.292 550.057L788.81 531.94L774.082 528.551L770.896 101.616V77.7208Z" fill="url(#paint2)"/>
<path d="M998.7 127.105L1074.84 138.385L1001.89 407.48L946.13 323.049C986.693 260.301 1026.58 207.553 1006.67 151.001C998.912 129.32 983.912 129.708 954.215 126.522L998.7 127.105Z" fill="url(#paint3)"/>
<path d="M1141.64 105.867L1102.61 126.577L1091.46 217.38L1116.15 329.689L1145.63 238.886L1141.64 105.867Z" fill="url(#paint4)"/>
<path d="M1001.89 407.48L944.537 325.436L1074.84 138.394L1001.89 407.48Z" fill="url(#paint5)"/>
<path d="M986.407 384.501C997.477 397.918 1003.35 394.875 1011.55 371.157L1074.84 138.383L1092.04 214.996L1116.48 324.979L1121.36 346.944L1105.43 354.512L1089.5 362.078L1073.57 291.984L1051.27 382.788L957.281 432.172L844.972 240.211L890.373 464.033L850.548 483.946L770.9 75.67L986.407 384.501ZM1001.63 406.323L1001.89 406.684L1002.04 406.104L1001.63 406.323Z" fill="url(#paint6)"/>
<path d="M1177.12 428.19L863.292 550.057L850.548 483.946L1107.82 351.724C1136.2 263.411 1144.68 209.506 1142.38 129.239L1142.38 130.518C1117.08 143.981 1101.45 170.914 1091.89 217.908L1074.83 138.385L1103.04 124.716L1141.36 104.048C1141.36 104.029 1141.36 104.01 1141.36 103.99L1231.28 60.1974L1177.12 428.19Z" fill="url(#paint7)"/>
<path d="M807.485 128.116L770.9 75.6774L1074.84 138.385C1022.52 136.767 861.81 108.767 807.485 128.116Z" fill="url(#paint8)"/>
</g>
<defs>
<linearGradient id="paint0" x1="967.359" y1="210.858" x2="1431.97" y2="139.904" gradientUnits="userSpaceOnUse">
<stop stop-color="#101010"/>
<stop offset="1" stop-color="white"/>
</linearGradient>
<linearGradient id="paint1" x1="1001.09" y1="60.1974" x2="1001.09" y2="140.646" gradientUnits="userSpaceOnUse">
<stop stop-color="#0C151C"/>
<stop offset="1" stop-color="white"/>
</linearGradient>
<linearGradient id="paint2" x1="829.838" y1="420.224" x2="886.391" y2="545.278" gradientUnits="userSpaceOnUse">
<stop stop-color="#757575"/>
<stop offset="1" stop-color="#484848"/>
</linearGradient>
<linearGradient id="paint3" x1="1017.37" y1="146.958" x2="1019.16" y2="188.522" gradientUnits="userSpaceOnUse">
<stop stop-color="#757575"/>
<stop offset="1" stop-color="#131313"/>
</linearGradient>
<linearGradient id="paint4" x1="1030.11" y1="151.777" x2="1203" y2="268.646" gradientUnits="userSpaceOnUse">
<stop stop-color="#DBDBDB"/>
<stop offset="0.70015" stop-color="#1E1E1E"/>
</linearGradient>
<linearGradient id="paint5" x1="1009.85" y1="140.638" x2="1009.85" y2="407.48" gradientUnits="userSpaceOnUse">
<stop stop-color="#333333"/>
<stop offset="1" stop-color="#000000"/>
</linearGradient>
<linearGradient id="paint7" x1="1040.92" y1="60.1974" x2="1040.92" y2="550.057" gradientUnits="userSpaceOnUse">
<stop stop-color="#121366"/>
<stop offset="1" stop-color="#000000"/>
</linearGradient>
<linearGradient id="paint6" x1="946.132" y1="75.6699" x2="946.132" y2="483.946" gradientUnits="userSpaceOnUse">
<stop stop-color="#0C151C"/>
<stop offset="1" stop-color="white"/>
</linearGradient>
<linearGradient id="paint8" x1="770.9" y1="101.897" x2="941.122" y2="101.897" gradientUnits="userSpaceOnUse">
<stop stop-color="#101820"/>
<stop offset="1" stop-color="#757575"/>
</linearGradient>
</defs>
</svg>
